<?xml version="1.0" encoding="UTF-8"?>
<svg width="1218px" height="1006px" viewBox="0 0 1218 1006" version="1.1" xmlns="http://www.w3.org/2000/svg" xmlns:xlink="http://www.w3.org/1999/xlink">
    <defs></defs>
    <g id="Page-1" stroke="none" stroke-width="1" fill="none" fill-rule="evenodd">
        <g id="logo-copy-2" transform="translate(-99.000000, -87.000000)">
            <g id="Group-Copy">
                <path d="M196.674841,315.057583 C213.948857,300.786077 236.21969,291.287379 263.487341,286.561489 C316.182496,266.040427 360.836142,259.105531 397.448278,265.756802 C452.366482,275.733707 468.628248,276.046087 515.370153,296.190395 C546.531423,309.619934 576.043142,329.134257 603.905309,354.733364 L656.752966,404.506802 L703.764684,467.198208 L723.143591,508.163052 L677.667028,598.998989 L661.932653,646.20602 L632.678747,685.756802 L690.975622,724.327114 L709.838903,764.264614 L766.643591,838.627895 L752.186559,869.51852 L706.869017,925.885708 L706.869017,992.890684 L690.975622,1071.3779 L632.678747,981.713833 L576.616247,901.538052 C548.14444,868.839795 529.563451,848.399429 520.873281,840.216956 C507.838025,827.943245 507.830165,829.308775 491.740588,821.620997 C475.651011,813.933218 483.357246,813.177435 455.608434,806.873989 C427.859623,800.570543 420.295541,809.001249 400.313128,801.395186 C380.330714,793.789123 383.195118,792.468085 362.682171,784.931265 C342.169223,777.394445 331.354589,780.759335 315.163122,781.041958 C298.971655,781.324581 288.886682,778.324496 280.97415,773.277367 C273.061618,768.230238 257.101555,760.622738 234.811559,747.010708 C212.521564,733.398678 208.770181,736.991292 170.639684,696.725552 C132.509188,656.459811 113.678368,608.255773 102.725622,583.959927 C91.7728759,559.66408 102.725622,523.948208 102.725622,501.397427 C102.725622,478.846645 101.93225,459.186106 108.112341,448.584927 C118.820609,430.216219 108.774029,422.851898 127.905309,398.577114 C147.03659,374.30233 170.763816,336.464841 196.674841,315.057583 Z" id="Path-2" fill="#32E572" transform="translate(432.250663, 667.346270) rotate(-359.000000) translate(-432.250663, -667.346270) "></path>
                <path d="M660.686793,415.3181 C669.060761,410.593761 675.528182,404.556306 680.089056,397.205736 C686.930367,386.179881 698.391439,344.165642 706.186712,329.881517 C713.981986,315.597392 747.496318,279.521503 751.389837,274.174486 C755.283357,268.827469 762.004011,257.863133 766.1789,252.119798 C768.962159,248.290909 773.363201,243.539606 779.382025,237.865892 L857.815619,165.877611 C879.696966,149.147619 896.153998,137.492671 907.186712,130.912767 C923.735784,121.042912 949.478594,107.542636 972.120306,99.1549547 C994.762019,90.7672732 1010.51143,86.565119 1042.73749,86.0026109 C1074.96356,85.4401029 1092.96741,89.3593638 1123.82343,92.5533922 C1154.67945,95.7474206 1156.16317,97.569223 1184.12421,107.20183 C1212.08526,116.834436 1219.23749,116.834436 1235.17109,130.912767 C1251.10468,144.991098 1302.33942,218.922416 1310.04609,267.934252 C1317.75275,316.946087 1266.83785,584.866691 1258.76093,617.752611 C1250.68401,650.638531 1245.32729,658.21214 1235.17109,678.834642 C1228.40029,692.582977 1218.99274,707.291311 1206.94843,722.959642 C1167.54791,782.857997 1139.83957,816.804612 1123.82343,824.799486 C1107.80729,832.79436 1057.23958,873.255298 972.120306,946.182298 C913.786269,993.730566 878.261529,1023.61208 865.546087,1035.82683 C846.472925,1054.14896 841.687122,1073.91772 831.549994,1081.21745 C821.412865,1088.51719 811.156947,1091.70392 801.354681,1093.19792 C791.552415,1094.69193 742.999677,1098.84307 725.565619,1093.19792 C718.777044,1090.99978 701.598822,1087.68816 693.825384,1081.21745 C691.018066,1078.88061 711.96916,1002.44719 709.999212,998.10808 C708.434763,994.662142 708.434763,973.498731 709.999212,934.617845 L754.542181,879.572923 L768.98554,846.768236 L712.967962,774.688158 L693.825384,734.916673 L636.024603,694.309252 L664.821478,652.194017 L680.089056,608.623705 L725.565619,515.121752 L706.186712,475.176439 L660.686793,415.3181 Z" id="Path-2-Copy-2" fill="#208BFF" transform="translate(973.431077, 591.010640) rotate(1.000000) translate(-973.431077, -591.010640) "></path>
            </g>
            <g id="Hashtags1" transform="translate(43.000000, 80.000000)"></g>
            <path d="M664.376953,411.754883 C685.201446,443.640464 698.265899,464.058107 703.570312,473.007813 C711.526933,486.432371 719.044922,497.265625 719.044922,510.835938 C719.044922,524.40625 692.899459,576.41539 679.641602,603.62207 C666.383744,630.828751 663.412951,627.521928 652.263672,647.878906 C641.114393,668.235885 625.335938,674.063477 632.107422,690.259766 C638.878906,706.456055 675.33745,717.124321 684.967285,727.546875 C694.59712,737.969429 701.615522,759.54834 705.829102,765.950684 C710.042681,772.353027 753.487491,831.000244 757.958984,842.904297 C760.93998,850.840332 757.996295,861.306478 749.12793,874.302734 C720.85764,907.735517 705.671767,926.403486 703.570312,930.306641 C700.41813,936.161373 702.370546,941.957869 701.402344,958.176758 C700.434141,974.395647 700.41813,988.342773 699.356733,1000.89063 C698.295336,1013.43848 684.967285,1063.91113 684.967285,1066.03027 C684.967285,1068.60596 684.875977,1074.92017 686.363281,1075.16113 C687.716797,1069.29492 690.635742,1059.28516 695.591797,1048.04199 C702.410807,1027.90007 706.580767,1011.53874 708.101675,998.958008 C706.674517,970.982096 708.186849,950.55013 712.638672,937.662109 C717.090495,924.774089 729.253581,909.100911 749.12793,890.642578 C763.398167,870.891932 769.676488,855.82813 767.962891,845.451172 C766.717492,837.909462 756.673927,822.556957 749.12793,812.361328 C739.522255,799.382807 730.104673,787.721118 719.044922,770.912109 C707.985171,754.103101 717.79593,755.941047 695.591797,727.546875 C673.387663,699.152703 651.996094,696.36395 650.521484,687.647949 C649.046875,678.931948 650.291992,674.515137 652.263672,669.333008 C654.235352,664.150879 660.125488,654.70459 662.984375,650.480469 C670.472876,639.415905 680.905273,620.138672 694.238281,591.533203 C707.571289,562.927734 727.033203,524.607422 729.609375,510.835938 C731.326823,501.654948 724.902181,486.98763 710.335449,466.833984 C699.06841,449.28411 686.114797,432.272879 671.474609,415.800293 C669.563364,413.649832 667.197479,412.301362 664.376953,411.754883 Z" id="Path-9" stroke="#FFFFCE" stroke-width="3" fill="#FFFFD1"></path>
        </g>
    </g>
</svg>
